<svg width="512" height="512" viewBox="0 0 512 512" fill="none" xmlns="http://www.w3.org/2000/svg">
<g clip-path="url(#clip0_146_1387)">
<path d="M512 256.853C512.008 261.054 511.185 265.215 509.578 269.096C507.97 272.977 505.611 276.502 502.635 279.467L338.965 443.221C316.961 465.224 287.118 477.585 256 477.585C224.882 477.585 195.039 465.224 173.035 443.221L9.36525 279.467C6.39421 276.494 4.03777 272.966 2.43038 269.082C0.823017 265.199 -0.00376525 261.038 -0.00278832 256.835C-0.00181139 252.632 0.826955 248.471 2.43618 244.589C4.04537 240.706 6.40352 237.179 9.37594 234.208C12.3484 231.237 15.8769 228.88 19.76 227.273C23.6431 225.666 27.8048 224.839 32.0075 224.84C36.2101 224.841 40.3714 225.67 44.2538 227.279C48.1362 228.888 51.6636 231.246 54.6346 234.219L218.283 397.973C223.235 402.927 229.115 406.857 235.587 409.538C242.059 412.219 248.995 413.599 256 413.599C263.005 413.599 269.941 412.219 276.413 409.538C282.885 406.857 288.765 402.927 293.717 397.973L457.365 234.304C461.835 229.831 467.531 226.782 473.732 225.544C479.934 224.305 486.363 224.932 492.208 227.344C498.054 229.757 503.054 233.847 506.576 239.099C510.099 244.351 511.986 250.529 512 256.853Z" fill="black"/>
<path d="M512 53.333C512.002 57.536 511.176 61.6982 509.569 65.582C507.962 69.4657 505.606 72.9948 502.635 75.9677L308.8 269.653C294.783 283.631 275.796 291.481 256 291.481C236.204 291.481 217.217 283.631 203.2 269.653L9.36531 75.925C3.64345 69.8672 0.510274 61.8163 0.632009 53.4843C0.753745 45.1523 4.12078 37.1964 10.0172 31.3084C15.9136 25.4203 23.8742 22.0645 32.2064 21.9545C40.5385 21.8446 48.585 24.9892 54.6347 30.7196L248.448 224.554C250.448 226.554 253.161 227.677 255.989 227.677C258.818 227.677 261.53 226.554 263.531 224.554L457.365 30.7197C461.839 26.2427 467.541 23.1931 473.748 21.9565C479.955 20.7199 486.39 21.3518 492.238 23.7724C498.086 26.193 503.085 30.2934 506.603 35.5552C510.12 40.817 511.999 47.0037 512 53.333Z" fill="black"/>
</g>
<defs>
<clipPath id="clip0_146_1387">
<rect width="512" height="512" fill="white" transform="translate(512 512) rotate(-180)"/>
</clipPath>
</defs>
</svg>
