<?xml version="1.0" encoding="UTF-8"?>
<svg xmlns="http://www.w3.org/2000/svg" id="Layer_1" data-name="Layer 1" viewBox="0 0 24 24">
  <path d="M10.26,1.918c-.139-.094-1.406-.918-2.96-.918s-2.819,.823-2.958,.917c-.253,.17-.415,.447-.439,.751-.003,.04-.315,4.08-.315,9.331,0,5.295,.312,9.292,.315,9.332,.024,.304,.186,.58,.438,.75,.139,.094,1.406,.918,2.959,.918s2.819-.823,2.959-.917c.253-.17,.415-.447,.439-.751,.003-.04,.315-4.08,.315-9.331,0-5.295-.312-9.292-.315-9.332-.024-.304-.186-.58-.438-.75Z"/>
  <path d="M20.097,2.668c-.024-.304-.186-.58-.438-.75-.139-.094-1.406-.918-2.959-.918s-2.819,.823-2.959,.917c-.253,.17-.415,.447-.439,.751-.003,.04-.315,4.08-.315,9.331,0,5.295,.312,9.292,.315,9.332,.024,.304,.186,.58,.438,.75,.139,.094,1.406,.918,2.96,.918s2.819-.823,2.958-.917c.253-.17,.415-.447,.439-.751,.003-.04,.315-4.08,.315-9.331,0-5.295-.312-9.292-.315-9.332Z"/>
</svg>
