<svg height="512" width="512" xmlns="http://www.w3.org/2000/svg"><path d="m0 0c1.0999568-.00525911 1.0999568-.00525911 2.22213495-.01062447 2.45855364-.00930794 4.9168701-.00439227 7.37543356.00046784 1.77996713-.00373657 3.55993261-.00833812 5.33989549-.01373065 4.89263645-.01224465 9.78520459-.0119678 14.67785287-.00961125 5.27621946.0004078 10.55241692-.01062745 15.82862615-.02011513 10.33779631-.01661913 20.67556981-.02210997 31.01337836-.02322476 8.40271192-.00095006 16.80541631-.00505827 25.20812586-.01140125 23.81971057-.01761508 47.63940311-.02683848 71.45912024-.02533905 1.92654365.00011987 1.92654365.00011987 3.89200738.00024216 1.28592947.00008176 2.57185894.00016352 3.89675596.00024776 20.84097525.00081292 41.68187823-.01832569 62.52283258-.0465245 21.39589818-.02872138 42.79176112-.04254069 64.18767908-.04081244 12.01354833.00066417 24.02702092-.00483995 36.0405519-.02635611 10.22868793-.01820197 20.45726577-.02256719 30.68596288-.00898115 5.2184443.00653463 10.43667731.00662884 15.65510157-.0107065 4.77943892-.01571369 9.55849875-.01288436 14.33792833.00456827 1.72677214.00307363 3.45357246-.00057619 5.18031138-.01172015 11.5248095-.06943789 21.64625348.54991375 30.48799351 8.80776529 7.60655701 8.46035423 8.82821971 16.8469879 8.79867553 27.89837646.00453112 1.23947081.00906223 2.47894162.01373065 3.75597215.01046252 3.43328572.01197117 6.86636178.00961125 10.29964852-.00040852 3.70565713.01063434 7.41128313.02011514 11.11692572.01660381 7.25767391.02210927 14.51531533.02322475 21.77300665.00095083 5.90080596.00506287 11.80160123.01140125 17.70240381.01761123 16.73650855.02683913 33.47299146.02533905 50.20950934-.00007991.902027-.00015982 1.804054-.00024215 2.73341516-.00008177.90313078-.00016353 1.80626155-.00024777 2.73675993-.00081272 14.63312305.01832177 29.26614311.0465245 43.89923638.02874186 15.03167053.04253956 30.06329086.04081245 45.09498957-.00066349 8.43651482.00481043 16.87292171.0263561 25.30941176.01822901 7.18376507.0225451 14.36737328.00898115 21.55115149-.00652122 3.66307237-.00667791 7.32584398.0107065 10.98888757.01867919 3.97688666.00615387 7.9533363-.00926208 11.93024445.01028712 1.14962715.02057425 2.2992543.03117311 3.48371863-.08120287 9.49229842-2.22113148 17.62005929-8.82252443 24.68821741-6.8356999 6.14585862-13.96707406 8.77859129-23.16018296 8.7885189-.73330453.00350608-1.46660906.00701215-2.22213494.01062447-2.45855365.00930794-4.91687011.00439227-7.37543357-.00046784-1.77996712.00373657-3.55993261.00833812-5.33989548.01373065-4.89263645.01224465-9.7852046.0119678-14.67785287.00961125-5.27621947-.0004078-10.55241692.01062745-15.82862616.02011513-10.33779631.01661913-20.67556981.02210997-31.01337835.02322476-8.40271193.00095006-16.80541632.00505827-25.20812586.01140125-23.81971057.01761508-47.63940311.02683848-71.45912024.02533905-1.92654366-.00011987-1.92654366-.00011987-3.89200739-.00024216-1.28592946-.00008176-2.57185893-.00016352-3.89675596-.00024776-20.84097525-.00081292-41.68187823.01832569-62.52283257.0465245-21.39589819.02872138-42.79176112.04254069-64.18767908.04081245-12.01354834-.00066417-24.02702092.00483994-36.0405519.0263561-10.22868794.01820198-20.45726578.02256719-30.68596289.00898115-5.21844429-.00653463-10.43667731-.00662884-15.65510157.0107065-4.77943892.01571369-9.55849874.01288436-14.33792832-.00456826-1.72677215-.00307364-3.45357246.00057618-5.18031138.01172015-11.52480951.06943788-21.64625348-.54991376-30.48799351-8.80776529-7.60655702-8.46035423-8.82821971-16.84698791-8.79867554-27.89837647-.00453111-1.23947081-.00906223-2.47894162-.01373065-3.75597215-.01046251-3.43328572-.01197117-6.86636178-.00961124-10.29964852.00040851-3.70565713-.01063435-7.41128313-.02011514-11.11692572-.01660381-7.25767391-.02210928-14.51531533-.02322476-21.77300664-.00095083-5.90080597-.00506287-11.80160124-.01140125-17.70240382-.01761122-16.73650855-.02683913-33.47299146-.02533905-50.20950934.00007991-.902027.00015982-1.804054.00024216-2.73341516.00008176-.90313077.00016352-1.80626155.00024776-2.73675993.00081272-14.63312304-.01832177-29.26614311-.04652449-43.89923638-.02874187-15.03167053-.04253956-30.06329086-.04081245-45.09498957.00066348-8.43651482-.00481043-16.87292171-.0263561-25.30941176-.01822902-7.18376507-.02254511-14.36737328-.00898116-21.55115149.00652122-3.66307237.00667791-7.32584398-.0107065-10.98888757-.01867919-3.97688665-.00615386-7.95333629.00926209-11.93024445-.01028713-1.14962715-.02057425-2.2992543-.03117311-3.48371863.08120287-9.49229842 2.22113147-17.62005929 8.82252443-24.6882174 6.83569989-6.14585863 13.96707405-8.77859129 23.16018295-8.78851891zm147.23044205 88.19476891c-2.67733619 4.85886937-2.81391239 9.18951749-2.8279419 14.67742919-.00297112.65129041-.00594224 1.30258082-.0090034 1.97360731-.00864682 2.17460256-.01019183 4.34914981-.01168752 6.52376818-.00463102 1.56247067-.00965607 3.12494021-.01504516 4.68740845-.01309873 4.239842-.01956404 8.47966818-.02401066 12.71952724-.00293486 2.65127556-.00704045 5.30254684-.01150417 7.95382023-.01366839 8.30217174-.02333822 16.60433363-.02720189 24.90651584-.00447902 9.57074783-.02202241 19.14135273-.0510006 28.71205711-.02164407 7.40655257-.03170514 14.813065-.03304052 22.21964884-.00104609 4.41959788-.00691209 8.83906128-.02481962 13.25862575-.01652786 4.15985745-.01861342 8.31948-.00986099 12.47935867.00076786 1.5217095-.00353909 3.04343189-.01345825 4.56510925-.48205814 12.81919013-.48205814 12.81919013 4.82305145 23.99253846 4.45413752 3.85278163 7.7709682 5.0114828 13.54802323 4.90480423 6.37807173-1.0879263 11.64447328-5.06748974 17-8.51171875 1.64786536-1.04127058 3.29633927-2.08157851 4.9453125-3.12109375 3.72430786-2.35590946 7.43880455-4.72652635 11.1484375-7.10546875 5.90093649-3.77918543 11.83584179-7.50220913 17.78125-11.2109375.99692871-.62205323 1.99385742-1.24410645 3.02099609-1.88500977 2.02377129-1.26237335 4.0476973-2.5244987 6.07177734-3.78637695 5.01313198-3.12654753 10.022499-6.2591149 15.03222657-9.39111328 1.99998171-1.25002927 3.99998171-2.50002926 6-3.75.99-.61875 1.98-1.2375 3-1.875 9-5.625 9-5.625 12.00463867-7.50219727 1.98538089-1.24132829 3.96992943-2.48398892 5.95361328-3.72802734 5.21737548-3.26949807 10.45029147-6.50969268 15.7097168-9.71118164 1.0911914-.66902344 2.18238281-1.33804688 3.30664062-2.02734375 2.08588378-1.27815858 4.17677784-2.54818954 6.2734375-3.80859375 5.83386693-3.58884501 10.6134409-6.82063181 13.75195313-13.09765625.5197324-4.73723304.52599673-8.78064395-1.375-13.1875-6.55731538-7.02569505-15.62646099-11.78802081-23.75-16.8125-2.12764986-1.32284318-4.25525271-2.64576198-6.3828125-3.96875-1.07797852-.66902344-2.15595703-1.33804688-3.26660157-2.02734375-5.08194597-3.15717625-10.15344874-6.33100544-15.22558593-9.50390625-1.99994508-1.25008788-3.9999452-2.50008769-6-3.75-36-22.5-36-22.5-39.00488282-24.37817383-1.98357743-1.23965506-3.96729946-2.47907878-5.95117187-3.71826172-5.25252466-3.28131459-10.50187457-6.56757637-15.74707031-9.8605957-1.09570313-.68707032-2.19140625-1.37414063-3.3203125-2.08203125-2.10509099-1.32014181-4.20930001-2.64169136-6.3125-3.96484375-.94617188-.59296875-1.89234375-1.1859375-2.8671875-1.796875-.83176758-.52247315-1.66353516-1.04494629-2.52050782-1.58325196-9.10515835-5.46368093-17.66497592-5.22368002-24.58886718 3.57153321z" transform="translate(47.457058 143.742731)"/><path d="m0 0c1.37034264-.00461072 2.74068033-.0109648 4.11100769-.01890898 3.76031763-.01669324 7.52022903-.00844721 11.2805481.00394488 4.05733488.00904826 8.11459978-.00491812 12.17192077-.01591969 7.94619439-.01779222 15.89223771-.01394213 23.83843804-.00234944 6.4576752.00903129 12.91530804.01025965 19.37298774.00590474 1.37831199-.0009194 1.37831199-.0009194 2.78446865-.00185737 1.86664043-.00127889 3.73328083-.00257575 5.59992123-.00389037 17.50602921-.01140785 35.01197465.00171113 52.51799011.02320147 15.0229791.01787117 30.04583456.01476712 45.06881142-.00367504 17.44312069-.02140308 34.88616794-.02983563 52.32929993-.01755095 1.85979715.0012742 3.71959431.00253169 5.57939148.00377226.91507041.0006171 1.83014082.0012342 2.77294063.00187001 6.45037886.00345458 12.90071116-.00237779 19.3510828-.01178822 7.8602183-.01121512 15.72027679-.00819024 23.58047676.01312297 4.01090224.01051704 8.02153799.01462127 12.03243828.00140339 3.67150034-.01191645 7.3424871-.00537426 11.01394081.01591021 1.95773051.00658708 3.91549664-.00647681 5.87318993-.02022892 6.42413946.05753259 10.60447827.10699482 15.43598938 4.53497362 3.62833663 3.81930172 4.31000458 6.88279006 4.5 12-.18999542 5.11720994-.87166337 8.18069828-4.5 12-5.73628722 5.25718716-11.80842064 4.56045602-19.28515625 4.50793457-1.37034264.00461072-2.74068033.0109648-4.11100769.01890898-3.76031763.01669324-7.52022903.00844721-11.2805481-.00394488-4.05733488-.00904826-8.11459978.00491812-12.17192077.01591969-7.94619439.01779222-15.89223771.01394213-23.83843804.00234944-6.4576752-.00903129-12.91530804-.01025965-19.37298774-.00590474-.91887466.00061293-1.83774931.00122587-2.78446865.00185737-1.86664043.0012789-3.73328083.00257575-5.59992123.00389037-17.50602921.01140785-35.01197465-.00171113-52.51799011-.02320147-15.0229791-.01787117-30.04583456-.01476712-45.06881142.00367505-17.44312069.02140307-34.88616794.02983562-52.32929993.01755094-1.85979715-.0012742-3.71959431-.00253169-5.57939148-.00377226-.91507041-.0006171-1.83014082-.0012342-2.77294063-.00187-6.45037886-.00345459-12.90071116.00237778-19.3510828.01178821-7.8602183.01121512-15.72027679.00819024-23.58047676-.01312297-4.01090224-.01051704-8.02153799-.01462127-12.03243828-.00140339-3.67150034.01191645-7.3424871.00537426-11.01394081-.01591021-1.95773051-.00658708-3.91549664.00647681-5.87318993.02022892-6.42413946-.05753259-10.60447827-.10699482-15.43598938-4.53497362-3.62833663-3.81930172-4.31000458-6.88279006-4.5-12 .18999542-5.11720994.87166337-8.18069828 4.5-12 5.73628722-5.25718716 11.80842064-4.56045602 19.28515625-4.50793457z" transform="translate(103.285156 79.492065)"/><path d="m0 0c.96461151-.00623996 1.92922302-.01247993 2.92306519-.01890898 3.22901931-.01594201 6.45728503-.00332065 9.68630981.00926543 2.31624797-.00542056 4.63249249-.01254285 6.94873047-.02124024 6.28918908-.01824393 12.57811586-.01116121 18.86730957.00151634 6.57955638.01012201 13.1590902.00073654 19.73864746-.00554466 11.75741953-.00854481 23.51472865.00469119 35.27212906.02503735 10.65674529.01787065 21.31331629.01476642 31.97005844-.00367504 12.38031125-.02141413 24.76051138-.02936987 37.14083862-.01755095 6.55172918.00623844 13.10333833.00706079 19.65505982-.00614595 6.1593217-.01154834 12.31831401-.00355088 18.4776001.01957702 2.26150973.00529246 4.52304715.0037642 6.78454589-.00505066 3.08519372-.01091741 6.16932942.00276301 9.25445557.02272034 1.34504105-.01338433 1.34504105-.01338433 2.71725464-.02703905 5.47098858.0687293 8.57538056.90665838 12.92337036 4.53497362 3.62833663 3.81930172 4.31000458 6.88279006 4.5 12-.18999542 5.11720994-.87166337 8.18069828-4.5 12-5.20852568 4.34641616-9.15510552 4.57247114-15.640625 4.50793457-.96461151.00623996-1.92922302.01247993-2.92306519.01890898-3.22901931.01594201-6.45728503.00332065-9.68630981-.00926542-2.31624797.00542055-4.63249249.01254284-6.94873047.02124023-6.28918908.01824393-12.57811586.01116121-18.86730957-.00151634-6.57955638-.01012201-13.1590902-.00073654-19.73864746.00554466-11.75741953.00854481-23.51472865-.00469119-35.27212906-.02503735-10.65674529-.01787065-21.31331629-.01476642-31.97005844.00367505-12.38031125.02141412-24.76051138.02936986-37.14083862.01755094-6.55172918-.00623844-13.10333833-.00706079-19.65505982.00614595-6.1593217.01154834-12.31831401.00355088-18.4776001-.01957702-2.26150973-.00529246-4.52304715-.0037642-6.78454589.00505066-3.08519372.01091741-6.16932942-.00276301-9.25445557-.02272034-1.34504105.01338433-1.34504105.01338433-2.71725464.02703905-5.47098858-.0687293-8.57538056-.90665838-12.92337036-4.53497362-3.62833663-3.81930172-4.31000458-6.88279006-4.5-12 .18999542-5.11720994.87166337-8.18069828 4.5-12 5.20852568-4.34641616 9.15510552-4.57247114 15.640625-4.50793457z" transform="translate(147.640625 15.492065)"/></svg>