<svg width="52" height="53" viewBox="0 0 52 53" fill="none" xmlns="http://www.w3.org/2000/svg">
<path fill-rule="evenodd" clip-rule="evenodd" d="M27.0784 2.41412C28.3948 4.72925 30.3922 5.63715 32.2534 7.31675C32.8435 7.81609 33.252 8.36084 33.5244 8.95096C34.1599 8.72399 34.8409 8.6332 35.6126 8.67859C38.1093 8.81478 40.1974 9.5865 42.6941 8.86018C43.1027 8.76939 43.5112 8.90557 43.7836 9.17793C44.056 9.4503 44.1922 9.85886 44.1014 10.2674C43.3751 12.7641 44.1468 14.8522 44.283 17.3489C44.3284 18.1207 44.2376 18.8016 44.0106 19.4371C44.6007 19.7095 45.1455 20.118 45.6448 20.7082C47.3244 22.5693 48.2323 24.5667 50.5474 25.8832C50.9106 26.0647 51.0922 26.4733 51.0922 26.8364C51.0922 27.1996 50.9106 27.6082 50.5474 27.7897C48.2323 29.1062 47.3244 31.1036 45.6448 32.9647C45.1455 33.5549 44.6007 33.9634 44.0106 34.2358C44.2376 34.8713 44.3284 35.5522 44.283 36.3239C44.1468 38.8207 43.3751 40.9088 44.1014 43.4055C44.1922 43.8141 44.056 44.2226 43.7836 44.495C43.5112 44.7674 43.1027 44.9036 42.6941 44.8128C40.1974 44.0864 38.1093 44.8582 35.6126 44.9943C34.8409 45.0397 34.1599 44.9489 33.5244 44.722C33.252 45.3121 32.8435 45.8568 32.2534 46.3562C30.3922 48.0358 28.3948 48.9437 27.0784 51.2588C26.8968 51.622 26.4882 51.8036 26.1251 51.8036C25.7619 51.8036 25.3534 51.622 25.1718 51.2588C23.8553 48.9437 21.858 48.0358 19.9968 46.3562C19.4066 45.8568 18.9981 45.3121 18.7257 44.722C18.0902 44.9489 17.4093 45.0397 16.6376 44.9943C14.1409 44.8582 12.0527 44.0864 9.55599 44.8128C9.14743 44.9036 8.73888 44.7674 8.46651 44.495C8.19414 44.2226 8.05796 43.8141 8.14875 43.4055C8.87506 40.9088 8.10335 38.8207 7.96717 36.3239C7.92177 35.5522 8.01256 34.8713 8.23954 34.2358C7.64941 33.9634 7.10467 33.5549 6.60533 32.9647C4.92572 31.1036 4.01783 29.1062 1.7027 27.7897C1.33954 27.6082 1.15796 27.1996 1.15796 26.8364C1.15796 26.4733 1.33954 26.0647 1.7027 25.8832C4.01783 24.5667 4.92572 22.5693 6.60533 20.7082C7.10467 20.118 7.64941 19.7095 8.23954 19.4371C8.01256 18.8016 7.92177 18.1207 7.96717 17.3489C8.10335 14.8522 8.87506 12.7641 8.14875 10.2674C8.05796 9.85886 8.19414 9.4503 8.46651 9.17793C8.73888 8.90557 9.14743 8.76939 9.55599 8.86018C12.0527 9.5865 14.1409 8.81478 16.6376 8.67859C17.4093 8.6332 18.0902 8.72399 18.7257 8.95096C18.9981 8.36084 19.4066 7.81609 19.9968 7.31675C21.858 5.63715 23.8553 4.72925 25.1718 2.41412C25.3534 2.05096 25.7619 1.86938 26.1251 1.86938C26.4882 1.86938 26.8968 2.05096 27.0784 2.41412ZM14.2316 14.943C12.6882 16.4864 11.9165 18.7562 12.5066 21.2075C10.3731 22.4786 9.28362 24.6575 9.28362 26.8364C9.28362 29.0154 10.3731 31.1943 12.5066 32.4654C11.9165 34.9167 12.6882 37.1864 14.2316 38.7299C15.7751 40.2733 18.0448 41.045 20.4961 40.4549C21.7672 42.5884 23.9461 43.6779 26.1251 43.6779C28.304 43.6779 30.483 42.5884 31.754 40.4549C34.2053 41.045 36.4751 40.2733 38.0185 38.7299C39.5619 37.1864 40.3336 34.9167 39.7435 32.4654C41.877 31.1943 42.9665 29.0154 42.9665 26.8364C42.9665 24.6575 41.877 22.4786 39.7435 21.2075C40.3336 18.7562 39.5619 16.4864 38.0185 14.943C36.4751 13.3996 34.2053 12.6279 31.754 13.218C30.483 11.0845 28.304 9.99504 26.1251 9.99504C23.9461 9.99504 21.7672 11.0845 20.4961 13.218C18.0448 12.6279 15.7751 13.3996 14.2316 14.943ZM26.1705 5.09241C26.1705 5.09241 26.1553 5.07728 26.1251 5.04701C26.0948 5.07728 26.0797 5.09241 26.0797 5.09241C26.0797 5.09241 26.0948 5.09241 26.1251 5.09241C26.1553 5.09241 26.1705 5.09241 26.1705 5.09241ZM41.5139 11.493C41.5139 11.4628 41.5139 11.4476 41.5139 11.4476C41.5139 11.4476 41.4987 11.4476 41.4685 11.4476C41.4685 11.4476 41.4685 11.4628 41.4685 11.493C41.4987 11.493 41.5139 11.493 41.5139 11.493ZM47.8691 26.8818C47.8691 26.8818 47.8843 26.8667 47.9145 26.8364C47.8843 26.8062 47.8691 26.7911 47.8691 26.7911C47.8691 26.7911 47.8691 26.8062 47.8691 26.8364C47.8691 26.8667 47.8691 26.8818 47.8691 26.8818ZM41.4685 42.2253C41.4987 42.2253 41.5139 42.2253 41.5139 42.2253C41.5139 42.2253 41.5139 42.2101 41.5139 42.1799C41.5139 42.1799 41.4987 42.1799 41.4685 42.1799C41.4685 42.2101 41.4685 42.2253 41.4685 42.2253ZM26.0797 48.5805C26.0797 48.5805 26.0948 48.5957 26.1251 48.6259C26.1553 48.5957 26.1705 48.5805 26.1705 48.5805C26.1705 48.5805 26.1553 48.5805 26.1251 48.5805C26.0948 48.5805 26.0797 48.5805 26.0797 48.5805ZM10.7362 42.1799C10.7362 42.2101 10.7362 42.2253 10.7362 42.2253C10.7362 42.2253 10.7514 42.2253 10.7816 42.2253C10.7816 42.2253 10.7816 42.2101 10.7816 42.1799C10.7514 42.1799 10.7362 42.1799 10.7362 42.1799ZM4.38099 26.7911C4.38099 26.7911 4.36585 26.8062 4.33559 26.8364C4.36585 26.8667 4.38099 26.8818 4.38099 26.8818C4.38099 26.8818 4.38099 26.8667 4.38099 26.8364C4.38099 26.8062 4.38099 26.7911 4.38099 26.7911ZM10.7816 11.4476C10.7514 11.4476 10.7362 11.4476 10.7362 11.4476C10.7362 11.4476 10.7362 11.4628 10.7362 11.493C10.7362 11.493 10.7514 11.493 10.7816 11.493C10.7816 11.4628 10.7816 11.4476 10.7816 11.4476Z" fill="#009C88"/>
<circle cx="26" cy="27" r="18" fill="#009C88"/>
</svg>
