<svg width="373" height="39" viewBox="0 0 373 39" fill="none" xmlns="http://www.w3.org/2000/svg">
<g clip-path="url(#clip0_19_2)">
<path d="M337 1H37C35.8954 1 35 1.89543 35 3V36C35 37.1046 35.8954 38 37 38H337C338.105 38 339 37.1046 339 36V3C339 1.89543 338.105 1 337 1Z" fill="#008080" stroke="#1E1E1E" stroke-width="2"/>
<path d="M36.102 0.222656C36.102 0.222656 32.78 1.29267 32.4277 3.6467C32.4277 3.6467 29.0554 4.33151 28.9547 7.19914C28.9547 7.19914 23.9718 9.25357 24.3745 14.2612C24.3745 14.2612 21.9081 15.8448 21.9081 19.4829C21.9081 23.1637 24.3745 24.7474 24.3745 24.7474C23.9718 29.755 28.9547 31.8094 28.9547 31.8094C29.0554 34.6771 32.4277 35.3619 32.4277 35.3619C32.78 37.7159 36.102 38.9999 36.102 38.9999V0.222656Z" fill="#1E1E1E"/>
<path d="M36.102 36.8173C36.102 36.8173 34.0383 36.7317 33.233 34.1636C33.233 34.1636 30.7667 34.2064 29.9614 30.654C29.9614 30.654 25.6327 29.4556 25.7837 24.0627C25.7837 24.0627 23.2671 22.5219 23.2671 19.483C23.2671 16.487 25.7837 14.9462 25.7837 14.9462C25.6327 9.55334 29.9614 8.35492 29.9614 8.35492C30.7667 4.75968 33.233 4.84528 33.233 4.84528C34.0383 2.27725 36.102 2.19165 36.102 2.19165V36.8173Z" fill="#008080"/>
<path d="M4.79496 12.5492C5.29829 12.7204 5.49962 13.2341 5.80162 13.7049C6.05328 13.9189 6.25462 14.0901 6.40561 14.3469H6.35528C8.01627 16.0589 9.82825 17.5997 10.9859 19.6541C10.9859 19.5685 10.5832 19.5685 10.0296 19.5685V19.6969C10.4322 19.6969 10.8517 19.7112 11.2879 19.7397C11.1872 20.2533 11.0362 20.7669 10.7846 21.2377C10.4322 21.837 9.97925 21.9654 9.37525 22.051C9.17392 22.5218 8.77126 22.907 8.31826 23.2922C8.2176 23.2922 8.10015 23.3064 7.96593 23.335C6.85861 24.6618 5.60029 25.903 4.94596 26.5878C5.85195 26.6306 6.40561 26.759 6.40561 26.759C6.40561 26.759 6.25462 25.7746 7.36194 25.9886C8.46926 26.1598 7.81494 27.0586 7.81494 27.0586C9.67725 27.4866 12.4959 29.4982 15.1635 29.4982C18.3848 29.4982 19.5425 27.0158 19.5425 27.0158C19.5425 27.0158 18.4352 27.0586 18.7875 26.2882C19.2405 25.3038 19.9955 26.0742 19.9955 26.0742C20.3478 25.1326 20.1968 23.549 20.1968 23.549C21.6565 23.7202 22.7638 22.693 22.7638 22.693C22.2605 22.7786 21.8075 22.3078 22.5625 21.7514C23.5691 20.9809 23.8711 21.9654 23.8711 21.9654C26.3878 19.7397 27.6461 19.4401 27.6461 19.4401C27.6461 19.4401 26.3878 19.1833 23.8711 16.9577C23.8711 16.9577 23.5691 17.9421 22.5625 17.1717C21.8075 16.6153 22.2605 16.1445 22.7638 16.2301C22.7638 16.2301 21.6565 15.2029 20.1968 15.3741C20.1968 15.3741 20.3478 13.7905 19.9955 12.8488C19.9955 12.8488 19.2405 13.6193 18.7875 12.6348C18.4352 11.8216 19.5425 11.9072 19.5425 11.9072C19.5425 11.9072 18.3848 9.4248 15.1635 9.4248C12.4959 9.4248 9.67725 11.4364 7.81494 11.8644C7.81494 11.8644 8.46926 12.7204 7.36194 12.9344C6.25462 13.1485 6.40561 12.164 6.40561 12.164C6.40561 12.164 5.75129 12.2924 4.74463 12.378V12.5492H4.79496Z" fill="#008080"/>
<path d="M10.0294 19.5684V19.6968C10.4321 19.6968 10.8515 19.711 11.2878 19.7396C11.1871 20.2532 11.0361 20.7668 10.7844 21.2376C10.4321 21.8368 9.97914 21.9652 9.37515 22.0508C9.22415 22.3504 9.02282 22.65 8.77115 22.9068C14.1567 24.3192 14.1567 29.6693 14.1567 29.6693C16.9754 24.6616 15.9687 22.6072 15.9687 22.6072C19.3914 23.6772 20.9517 20.724 20.9517 20.724C23.4683 20.5956 24.2736 19.654 24.2736 19.654C23.2167 18.0703 20.9517 18.37 20.9517 18.37C18.6867 14.9887 15.8681 16.6151 15.8681 16.6151C16.7237 12.8915 14.1064 9.25342 14.1064 9.25342C14.0057 12.6775 11.5898 14.9887 11.5898 14.9887C10.7844 15.1599 9.57648 15.6735 8.26782 16.2727C9.27448 17.2999 10.2811 18.37 10.9858 19.654C10.9858 19.5684 10.5831 19.5684 10.0294 19.5684Z" fill="#1E1E1E"/>
<path d="M9.17395 22.3933C9.2075 22.4218 9.24106 22.4361 9.27461 22.4361C12.6973 23.8913 12.6973 26.1169 12.6973 26.1169C12.2443 26.0741 11.59 26.3737 11.892 27.0585C12.194 27.7005 13.1 27.3581 13.1 27.3581C14.1066 28.2997 13.6536 30.4398 13.6536 30.4398C14.7609 27.3581 13.4523 25.4749 13.4523 25.4749C13.4523 25.4749 14.0059 25.3465 13.8046 24.7045C13.5026 23.9341 12.798 24.3193 12.798 24.3193C12.5966 23.8057 11.3886 22.9069 11.3886 22.9069C12.7476 22.8213 12.7476 21.8797 12.7476 21.8797C13.0496 21.8797 13.7543 21.7941 14.6099 21.4945C15.5663 21.152 16.5226 20.4244 16.5226 20.4244C16.5226 20.4244 16.7239 20.8524 17.0259 20.8524C17.3279 20.8524 17.6802 20.6812 17.6299 20.296C17.5796 19.9536 17.1769 19.3972 16.0696 20.0392C14.3079 21.1092 12.1436 21.3232 12.1436 21.3232C12.1436 21.3232 11.3886 22.5645 10.382 21.7085C10.1303 21.9225 9.77794 22.0081 9.37528 22.0509C9.30817 22.165 9.24106 22.2791 9.17395 22.3933Z" fill="#CDAD80"/>
<path d="M8.51953 23.1638C8.6202 23.1923 8.72086 23.2209 8.82153 23.2494C12.3448 24.2766 12.6971 26.117 12.6971 26.117C12.6971 26.117 12.8481 23.8486 9.02286 22.6074C8.85508 22.7786 8.68731 22.9641 8.51953 23.1638Z" fill="#CDAD80"/>
<path d="M8.51956 16.5297C12.8482 15.3313 12.6972 12.8489 12.6972 12.8489C12.6972 12.8489 12.3449 14.6893 8.82156 15.7165C8.51956 15.8021 8.25112 15.8877 8.01624 15.9733C8.18401 16.1445 8.35179 16.33 8.51956 16.5297Z" fill="#CDAD80"/>
<path d="M9.67727 17.7708C9.91216 17.6567 10.1471 17.4997 10.382 17.3C11.3886 16.3584 12.1436 17.6424 12.1436 17.6424C12.1436 17.6424 14.3079 17.8564 16.0696 18.9264C17.1769 19.5684 17.5796 19.012 17.6299 18.6696C17.6802 18.2844 17.3279 18.1132 17.0259 18.1132C16.7239 18.1132 16.5226 18.5412 16.5226 18.5412C16.5226 18.5412 15.5663 17.8136 14.6099 17.4712C13.7543 17.1716 13.0496 17.086 12.7476 17.086C12.7476 17.086 12.7476 16.1444 11.3886 16.0588C11.3886 16.0588 12.5966 15.16 12.798 14.6464C12.798 14.6464 13.5026 15.0316 13.8046 14.2612C14.0059 13.6192 13.4523 13.4908 13.4523 13.4908C13.4523 13.4908 14.7609 11.6075 13.6536 8.52588C13.6536 8.52588 14.1066 10.6659 13.0999 11.6075C13.0999 11.6075 12.194 11.2651 11.892 11.9071C11.59 12.592 12.2443 12.8916 12.6973 12.8488C12.6973 12.8488 12.6973 15.1172 9.27461 16.5296C9.07328 16.6152 8.88872 16.6865 8.72095 16.7436C9.0565 17.086 9.37527 17.4284 9.67727 17.7708Z" fill="#CDAD80"/>
<path d="M11.4388 19.0548C17.0761 17.0432 16.1701 14.0472 16.2204 12.9344C16.2708 11.8215 17.6801 11.6931 17.6801 11.6931C17.6801 11.6931 16.7741 12.0355 17.0258 13.2768C17.3781 14.9032 16.2708 16.1872 16.2708 16.1872C16.2708 16.1872 17.7807 15.16 20.2471 17.0004C20.2471 17.0004 17.6297 15.6308 16.2204 16.7864C15.5661 17.3428 14.2071 19.1832 11.7408 19.4828C14.2071 19.7824 15.5661 21.6229 16.2204 22.1793C17.6297 23.3349 20.2471 21.9653 20.2471 21.9653C17.7807 23.8057 16.2708 22.7785 16.2708 22.7785C16.2708 22.7785 17.3781 24.0625 17.0258 25.6889C16.7741 26.9301 17.6801 27.3153 17.6801 27.3153C17.6801 27.3153 16.2708 27.1441 16.2204 26.0313C16.1701 24.9185 17.0761 21.9225 11.4388 19.9108V19.0548Z" fill="#CDAD80"/>
<path d="M23.6698 19.4828C22.7135 18.4556 20.6498 18.6696 20.6498 18.6696C20.5995 17.1716 18.7875 17.1288 18.7875 17.1288C18.7875 17.1288 18.7875 17.5568 18.2338 17.6424C17.6802 17.728 17.5292 17.514 17.3782 17.2144C17.2775 17.0004 17.4285 16.3584 18.0828 16.3584C18.7372 16.3584 20.6498 16.7008 21.3041 18.1132C21.3041 18.1132 23.5691 17.8992 24.7771 19.4828C23.5691 21.0665 21.3041 20.8525 21.3041 20.8525C20.6498 22.3077 18.7372 22.6073 18.0828 22.6073C17.4285 22.6073 17.2775 21.9653 17.3782 21.7085C17.5292 21.4945 17.6802 21.2377 18.2338 21.3233C18.7875 21.4089 18.7875 21.8369 18.7875 21.8369C18.7875 21.8369 20.5995 21.7941 20.6498 20.296C20.6498 20.296 22.7135 20.51 23.6698 19.4828Z" fill="#CDAD80"/>
<path d="M10.5833 18.9693C11.2377 18.5841 11.288 17.8137 11.288 17.8137C11.288 17.8137 10.684 17.9849 10.08 18.3273C10.2478 18.527 10.4155 18.741 10.5833 18.9693Z" fill="#008080"/>
<path d="M11.2879 19.7397C11.2543 19.8253 11.2375 19.8966 11.2375 19.9537C11.6402 19.9537 12.1435 19.8253 12.6469 19.4829C11.8919 18.8837 11.0362 18.9265 10.6335 19.0121C10.7678 19.2118 10.8852 19.4258 10.9859 19.6541C10.9859 19.5685 10.5832 19.5685 10.0295 19.5685V19.6969C10.4322 19.6969 10.8516 19.7111 11.2879 19.7397Z" fill="#008080"/>
<path d="M36.102 25.5605C36.0516 26.2454 34.743 29.1986 32.2263 29.1986C29.6594 29.1986 28.8037 27.187 28.8037 27.187C28.8037 27.187 29.6594 28.2998 31.2197 28.2998C32.025 28.2998 32.025 27.6578 32.6793 27.6578C33.3337 27.6578 33.4343 28.2998 33.0317 28.5994C33.0317 28.5994 34.9947 28.1714 35.9006 25.5605H36.102Z" fill="#CDAD80"/>
<path d="M36.102 29.0703C36.102 29.0703 33.5854 27.9147 33.7364 26.117C33.7364 26.117 30.9177 26.2026 30.9177 24.9614C30.9177 23.6774 33.7867 23.5918 33.233 22.7786C32.7297 22.051 31.9244 22.9926 30.6157 23.0782C29.0051 23.1638 27.7971 22.3078 27.8977 21.1094C27.8977 21.1094 26.1864 20.8954 25.8844 20.339C25.4818 19.697 24.8274 19.483 24.8274 19.483C24.8274 19.483 25.4818 19.2262 25.8844 18.6269C26.1864 18.0705 27.8977 17.8565 27.8977 17.8565C27.7971 16.6581 29.0051 15.8021 30.6157 15.8877C31.9244 15.9733 32.7297 16.9149 33.233 16.1873C33.7867 15.3741 30.9177 15.2885 30.9177 14.0473C30.9177 12.7633 33.7364 12.8489 33.7364 12.8489C33.5854 11.0513 36.102 9.89564 36.102 9.89564L35.8503 9.68164C35.8503 9.68164 33.4847 10.4948 33.1827 12.3353C33.1827 12.3353 29.3574 12.1641 30.1124 15.4597C30.1124 15.4597 27.4951 15.2457 27.3944 17.5141C27.3944 17.5141 25.7838 17.7281 25.3308 18.5841C24.8274 19.4402 23.9214 19.483 23.9214 19.483C23.9214 19.483 24.8274 19.5258 25.3308 20.3818C25.7838 21.2378 27.3944 21.4518 27.3944 21.4518C27.4951 23.7202 30.1124 23.5062 30.1124 23.5062C29.3574 26.8019 33.1827 26.6306 33.1827 26.6306C33.4847 28.4711 35.8503 29.2843 35.8503 29.2843L36.102 29.0703Z" fill="#CDAD80"/>
<path d="M36.102 13.4052C36.0516 12.7203 34.743 9.76709 32.2263 9.76709C29.6594 9.76709 28.8037 11.8215 28.8037 11.8215C28.8037 11.8215 29.6594 10.7087 31.2197 10.7087C32.025 10.7087 32.025 11.3079 32.6793 11.3079C33.3337 11.3079 33.4343 10.7087 33.0317 10.3663C33.0317 10.3663 34.9947 10.7943 35.9006 13.4052H36.102Z" fill="#CDAD80"/>
<path d="M30.7164 19.44C30.6157 20.7668 28.401 20.9808 28.401 20.9808C28.401 20.2104 29.4077 19.9536 29.4077 19.9536C28.099 20.2532 27.3441 19.3544 27.3441 19.3544C27.3441 19.3544 28.099 18.7124 29.4077 19.0548C29.4077 19.0548 28.401 18.798 28.401 18.0276C28.401 18.0276 30.6157 18.0704 30.7164 19.44Z" fill="#008080"/>
<path d="M4.09026 10.666C4.09026 10.666 3.73793 12.378 4.54325 13.1912C4.54325 13.1912 5.29825 12.8916 5.54991 13.4481C5.80158 13.9617 5.24791 14.2185 4.89558 14.1757C4.89558 14.1757 4.89558 16.0161 7.71423 17.1717C8.51955 17.5141 8.97255 17.6853 8.82155 18.1133C8.67055 18.5841 7.66389 18.5413 6.80823 17.8137C5.95257 17.0433 5.34858 18.0705 5.34858 18.0705C5.34858 18.0705 3.58693 18.2845 2.17761 19.1405C1.27162 19.6541 0.919286 19.1833 0.868953 18.9265C0.81862 18.6269 1.12062 18.4557 1.37228 18.4557C1.62395 18.4557 1.77494 18.8409 1.77494 18.8409C1.77494 18.8409 2.58027 18.2417 3.33526 17.9421C4.03993 17.6853 4.59359 17.6425 4.84525 17.6425C4.84525 17.6425 4.84525 16.8721 5.95258 16.7865C5.95258 16.7865 4.94592 16.0589 4.79492 15.6737C4.79492 15.6737 4.24126 15.9733 3.98959 15.3313C3.83859 14.8177 4.24126 14.6893 4.24126 14.6893C4.24126 14.6893 3.2346 13.1912 4.09026 10.666Z" fill="#CDAD80"/>
<path d="M9.97928 19.5686C10.2813 19.5258 10.684 19.4402 10.8853 18.627C11.137 17.771 10.3316 17.1718 8.06663 16.5298C5.14732 15.6738 4.89566 14.1758 4.89566 14.1758C4.89566 14.1758 4.79499 16.273 8.46929 17.2146C10.0297 17.6426 10.1303 17.985 10.1303 18.4986C10.1303 19.055 9.27462 19.4402 8.06663 19.269V19.911C9.27462 19.7398 10.1303 20.125 10.1303 20.6814C10.1303 21.195 10.0297 21.5374 8.46929 21.9655C4.79499 22.9071 4.89566 25.0043 4.89566 25.0043C4.89566 25.0043 5.14732 23.5063 8.06663 22.6503C10.3316 22.0083 11.137 21.409 10.8853 20.553C10.684 19.7398 10.2813 19.6542 9.97928 19.5686Z" fill="#CDAD80"/>
<path d="M4.09026 28.5138C4.09026 28.5138 3.73793 26.8018 4.54325 25.9886C4.54325 25.9886 5.29825 26.2882 5.54991 25.7746C5.80158 25.2182 5.24791 24.9614 4.89558 25.0042C4.89558 25.0042 4.89558 23.1637 7.71423 22.0081C8.51955 21.6657 8.97255 21.4945 8.82155 21.0665C8.67055 20.5957 7.66389 20.6385 6.80823 21.3661C5.95257 22.1365 5.34858 21.1093 5.34858 21.1093C5.34858 21.1093 3.58693 20.8953 2.17761 20.0821C1.27162 19.5257 0.919286 19.9965 0.868953 20.2533C0.81862 20.5529 1.12062 20.7241 1.37228 20.7241C1.62395 20.7241 1.77494 20.3389 1.77494 20.3389C1.77494 20.3389 2.58027 20.9381 3.33526 21.2377C4.03993 21.4945 4.59359 21.5373 4.84525 21.5373C4.84525 21.5373 4.84525 22.3077 5.95258 22.3933C5.95258 22.3933 4.94592 23.1209 4.79492 23.5061C4.79492 23.5061 4.24126 23.2065 3.98959 23.8486C3.83859 24.3622 4.24126 24.4906 4.24126 24.4906C4.24126 24.4906 3.2346 25.9886 4.09026 28.5138Z" fill="#CDAD80"/>
<path d="M14.3583 19.5685C12.9489 20.8953 10.7343 21.3661 10.7343 21.3661C10.9356 21.1521 10.9356 20.6385 10.9356 20.6385C10.9356 20.6385 12.1939 20.5101 13.4523 19.5685C12.1939 18.6697 10.9356 18.5413 10.9356 18.5413C10.9356 18.5413 10.9356 18.0277 10.7343 17.8137C10.7343 17.8137 12.9489 18.2845 14.3583 19.5685Z" fill="#CDAD80"/>
<path d="M7.8149 19.5685C7.8149 20.5101 6.05325 20.9381 6.05325 20.9381C6.05325 20.9381 6.10358 20.1677 6.80824 19.9109C6.80824 19.9109 5.80158 20.2533 4.94592 19.5685C5.85191 18.9693 6.80824 19.2689 6.80824 19.2689C6.10358 19.0121 6.05325 18.2417 6.05325 18.2417C6.05325 18.2417 7.8149 18.6269 7.8149 19.5685Z" fill="#008080"/>
<path d="M7.36194 19.1406C7.36194 18.627 8.01627 18.627 8.01627 19.1406V20.2534C8.01627 20.767 7.36194 20.767 7.36194 20.2534V19.1406Z" fill="#CDAD80"/>
<path d="M31.1191 19.3545C35.2464 20.4245 36.102 23.3349 36.102 23.3349L35.7497 23.3777C35.7497 23.3777 34.6424 20.7241 31.0687 19.6969L31.1191 19.3545Z" fill="#CDAD80"/>
<path d="M33.686 20.981L33.1827 20.6814C32.931 22.6502 29.8607 23.0782 29.8607 23.0782C29.8607 23.0782 33.1324 23.2494 33.686 20.981Z" fill="#CDAD80"/>
<path d="M31.1191 19.6112C35.2464 18.5411 36.102 15.6307 36.102 15.6307L35.7497 15.5879C35.7497 15.5879 34.6424 18.2415 31.0687 19.2688L31.1191 19.6112Z" fill="#CDAD80"/>
<path d="M33.686 17.9849L33.1827 18.2845C32.931 16.3157 29.8607 15.8877 29.8607 15.8877C29.8607 15.8877 33.1324 15.7165 33.686 17.9849Z" fill="#CDAD80"/>
<path d="M35.5986 19.3972C35.045 18.3272 34.3403 18.0276 34.3403 18.0276L33.988 18.2844C33.988 18.2844 34.6927 18.6268 35.045 19.3972C34.6927 20.1676 33.8873 20.6384 33.8873 20.6384L34.29 20.938C34.29 20.938 35.045 20.4672 35.5986 19.3972Z" fill="#CDAD80"/>
<path d="M36.102 29.3269C34.3403 30.1829 33.8873 31.9806 33.8873 31.9806C34.8437 32.0662 35.2463 31.1674 35.2463 31.1674C34.9947 32.1946 36.102 33.3502 36.102 33.3502V29.3269Z" fill="#008080"/>
<path d="M36.102 23.335C34.441 23.4206 34.1893 25.261 34.1893 25.261C35.0953 25.261 35.3973 24.4478 35.3973 24.4478C35.045 25.475 36.102 26.1598 36.102 26.1598V23.335Z" fill="#008080"/>
<path d="M36.102 9.63873C34.3403 8.73992 33.8873 6.98509 33.8873 6.98509C34.8437 6.89949 35.2463 7.7983 35.2463 7.7983C34.9947 6.77109 36.102 5.61548 36.102 5.61548V9.63873Z" fill="#008080"/>
<path d="M36.102 15.6308C34.441 15.5452 34.1893 13.7047 34.1893 13.7047C35.0953 13.7047 35.3973 14.518 35.3973 14.518C35.045 13.4907 36.102 12.8059 36.102 12.8059V15.6308Z" fill="#008080"/>
<path d="M31.1694 20.1247C31.1694 20.7668 30.3641 20.8096 30.3641 20.1247V18.7979C30.3641 18.1559 31.1694 18.1559 31.1694 18.7979V20.1247Z" fill="#CDAD80"/>
<path d="M36.1021 29.8835H34.9948C34.0888 29.8835 34.1391 29.0703 34.9948 29.0703H36.1021V29.8835Z" fill="#CDAD80"/>
<path d="M36.102 15.9734H35.196C34.3907 15.9734 34.3907 15.2886 35.196 15.2886H36.102V15.9734Z" fill="#CDAD80"/>
<path d="M36.102 23.5918H35.196C34.3907 23.5918 34.3907 22.907 35.196 22.907H36.102V23.5918Z" fill="#CDAD80"/>
<path d="M36.1021 9.03955H34.9948C34.0888 9.03955 34.1391 9.80996 34.9948 9.80996H36.1021V9.03955Z" fill="#CDAD80"/>
<path d="M337.747 0.222656C337.747 0.222656 341.069 1.29267 341.421 3.6467C341.421 3.6467 344.743 4.33151 344.844 7.19914C344.844 7.19914 349.827 9.25357 349.475 14.2612C349.475 14.2612 351.941 15.8448 351.941 19.4829C351.941 23.1637 349.475 24.7474 349.475 24.7474C349.827 29.755 344.844 31.8094 344.844 31.8094C344.743 34.6771 341.421 35.3619 341.421 35.3619C341.069 37.7159 337.747 38.9999 337.747 38.9999V0.222656Z" fill="#1E1E1E"/>
<path d="M337.747 36.8173C337.747 36.8173 339.76 36.7317 340.566 34.1636C340.566 34.1636 343.032 34.2064 343.837 30.654C343.837 30.654 348.216 29.4556 348.015 24.0627C348.015 24.0627 350.582 22.5219 350.582 19.483C350.582 16.487 348.015 14.9462 348.015 14.9462C348.216 9.55334 343.837 8.35492 343.837 8.35492C343.032 4.75968 340.566 4.84528 340.566 4.84528C339.76 2.27725 337.747 2.19165 337.747 2.19165V36.8173Z" fill="#008080"/>
<path d="M349.777 22.3077C349.777 22.3077 350.079 21.3233 351.085 22.0937C351.84 22.6501 351.387 23.1209 350.884 23.0353C350.884 23.0353 351.991 24.1053 353.451 23.8913C353.451 23.8913 353.3 25.5177 353.652 26.4165C353.652 26.4165 354.407 25.6461 354.86 26.6305C355.212 27.4437 354.105 27.3581 354.105 27.3581C354.105 27.3581 355.263 29.8406 358.484 29.8406C361.152 29.8406 363.97 27.8289 365.833 27.4009C365.833 27.4009 365.178 26.5449 366.286 26.3309C367.393 26.1597 367.242 27.1013 367.242 27.1013C367.242 27.1013 367.997 26.9729 369.205 26.8873C369.171 26.8303 369.138 26.7732 369.104 26.7161C368.651 26.0313 368.047 25.3893 367.393 24.7901C365.732 23.1637 364.021 21.5801 362.46 19.9108C362.158 19.9108 362.007 19.9108 362.007 19.9108C362.007 19.8823 362.007 19.868 362.007 19.868C362.611 18.3272 364.121 17.1716 365.48 16.1444C365.749 15.9447 366.051 15.7449 366.386 15.5452H365.883C366.386 14.9888 366.94 14.3468 367.594 13.876C367.829 13.5906 368.064 13.3196 368.299 13.0628C368.433 12.9486 368.584 12.8202 368.752 12.6775C367.796 12.6347 367.242 12.5063 367.242 12.5063C367.242 12.5063 367.393 13.4908 366.286 13.2768C365.178 13.1056 365.833 12.2067 365.833 12.2067C363.97 11.7787 361.152 9.76709 358.484 9.76709C355.263 9.76709 354.105 12.2495 354.105 12.2495C354.105 12.2495 355.212 12.2067 354.86 12.9772C354.407 13.9616 353.652 13.1912 353.652 13.1912C353.3 14.1328 353.451 15.7164 353.451 15.7164C351.991 15.5452 350.884 16.5724 350.884 16.5724C351.387 16.4868 351.84 16.9576 351.085 17.514C350.079 18.2844 349.777 17.3 349.777 17.3C347.26 19.5256 346.002 19.8252 346.002 19.8252C346.002 19.8252 347.26 20.1248 349.777 22.3077Z" fill="#008080"/>
<path d="M352.696 20.8953C354.961 24.2765 357.779 22.6501 357.779 22.6501C356.924 26.3738 359.541 30.0118 359.541 30.0118C359.642 26.5878 362.058 24.2765 362.058 24.2765C362.863 24.1053 364.172 23.5917 365.531 22.9497C364.474 21.9653 363.417 20.9381 362.46 19.9109C362.158 19.9109 362.007 19.9109 362.007 19.9109C362.007 19.8823 362.007 19.8681 362.007 19.8681C362.561 18.4985 363.87 17.3856 365.128 16.444C359.491 15.1172 359.491 9.59595 359.491 9.59595C356.672 14.6036 357.679 16.658 357.679 16.658C354.256 15.588 352.696 18.5413 352.696 18.5413C350.179 18.6697 349.374 19.6113 349.374 19.6113C350.431 21.1949 352.696 20.8953 352.696 20.8953Z" fill="#1E1E1E"/>
<path d="M356.018 18.9692C356.068 19.3116 356.471 19.868 357.578 19.226C359.34 18.156 361.504 17.942 361.504 17.942C361.504 17.942 362.259 16.658 363.266 17.5996C363.366 17.6566 363.45 17.7137 363.517 17.7708C363.853 17.4569 364.188 17.1573 364.524 16.872C364.49 16.872 364.44 16.8577 364.373 16.8292C360.95 15.4167 360.95 13.1483 360.95 13.1483C361.403 13.1911 362.058 12.8915 361.756 12.2067C361.454 11.5647 360.548 11.9071 360.548 11.9071C359.541 10.9655 359.994 8.82544 359.994 8.82544C358.887 11.9071 360.195 13.7903 360.195 13.7903C360.195 13.7903 359.642 13.9187 359.843 14.5607C360.145 15.3311 360.85 14.9459 360.85 14.9459C361.051 15.4595 362.259 16.3584 362.259 16.3584C360.9 16.444 360.9 17.3856 360.9 17.3856C360.598 17.3856 359.893 17.4712 359.038 17.7708C358.081 18.156 357.125 18.8408 357.125 18.8408C357.125 18.8408 356.924 18.4128 356.622 18.4128C356.32 18.4128 355.967 18.584 356.018 18.9692Z" fill="#CDAD80"/>
<path d="M365.229 22.6931C360.799 23.8915 360.95 26.4167 360.95 26.4167C360.95 26.4167 361.303 24.5763 364.826 23.5491C365.195 23.435 365.531 23.3351 365.833 23.2495C365.631 23.0783 365.43 22.8928 365.229 22.6931Z" fill="#CDAD80"/>
<path d="M364.725 16.7009C364.96 16.5297 365.195 16.3585 365.43 16.1873C365.229 16.1302 365.027 16.0731 364.826 16.0161C361.303 14.9889 360.95 13.1484 360.95 13.1484C360.95 13.1484 360.799 15.5025 364.725 16.7009Z" fill="#CDAD80"/>
<path d="M356.622 21.1521C356.924 21.1521 357.125 20.7241 357.125 20.7241C357.125 20.7241 358.081 21.4517 359.038 21.7941C359.893 22.0937 360.598 22.1793 360.9 22.1793C360.9 22.1793 360.9 23.121 362.259 23.2066C362.259 23.2066 361.051 24.1054 360.85 24.619C360.85 24.619 360.145 24.2338 359.843 25.0042C359.642 25.6462 360.195 25.7746 360.195 25.7746C360.195 25.7746 358.887 27.6578 359.994 30.7395C359.994 30.7395 359.541 28.5994 360.548 27.6578C360.548 27.6578 361.454 28.0002 361.756 27.3582C362.058 26.6734 361.403 26.3738 360.95 26.4166C360.95 26.4166 360.95 24.191 364.373 22.7358C364.608 22.6502 364.826 22.5646 365.027 22.479C364.692 22.1651 364.356 21.8369 364.021 21.4945C363.786 21.6087 363.534 21.7656 363.266 21.9653C362.259 22.907 361.504 21.6229 361.504 21.6229C361.504 21.6229 359.34 21.4089 357.578 20.3817C356.471 19.6969 356.068 20.2533 356.018 20.5957C355.967 20.9809 356.32 21.1521 356.622 21.1521Z" fill="#CDAD80"/>
<path d="M353.401 17.3C353.401 17.3 356.018 15.9304 357.427 17.086C358.081 17.6424 359.44 19.4828 361.907 19.7824C359.44 20.0821 358.081 21.9225 357.427 22.4789C356.018 23.6345 353.401 22.2649 353.401 22.2649C355.867 24.1053 357.377 23.0781 357.377 23.0781C357.377 23.0781 356.269 24.3621 356.622 25.9885C356.873 27.2297 355.968 27.6149 355.968 27.6149C355.968 27.6149 357.377 27.4437 357.427 26.3309C357.477 25.2181 356.571 22.2221 362.209 20.2105V19.9108C362.075 19.9108 362.007 19.9108 362.007 19.9108C362.007 19.9108 362.007 19.8966 362.007 19.868C362.075 19.7254 362.142 19.597 362.209 19.4828V19.3544C356.571 17.3428 357.477 14.3468 357.427 13.234C357.377 12.1212 355.968 11.95 355.968 11.95C355.968 11.95 356.873 12.3352 356.622 13.5764C356.269 15.2028 357.377 16.4868 357.377 16.4868C357.377 16.4868 355.867 15.4596 353.401 17.3Z" fill="#CDAD80"/>
<path d="M349.978 19.7826C350.934 20.8098 352.998 20.5958 352.998 20.5958C353.048 22.0938 354.86 22.1366 354.86 22.1366C354.86 22.1366 354.86 21.7086 355.414 21.623C355.968 21.5374 356.119 21.7942 356.27 22.051C356.37 22.265 356.219 22.9071 355.565 22.9071C354.911 22.9071 352.998 22.6075 352.344 21.1522C352.344 21.1522 350.079 21.3662 348.871 19.7826C350.079 18.199 352.344 18.413 352.344 18.413C352.998 17.0006 354.911 16.6582 355.565 16.6582C356.219 16.6582 356.37 17.3002 356.27 17.557C356.119 17.771 355.968 18.0278 355.414 17.9422C354.86 17.8566 354.86 17.4286 354.86 17.4286C354.86 17.4286 353.048 17.4714 352.998 18.9694C352.998 18.9694 350.934 18.7554 349.978 19.7826Z" fill="#CDAD80"/>
<path d="M363.518 20.981C363.316 20.8098 363.115 20.6243 362.914 20.4246C362.41 20.8098 362.36 21.4518 362.36 21.4518C362.36 21.4518 362.964 21.2806 363.518 20.981Z" fill="#008080"/>
<path d="M362.008 19.9108C362.008 19.8822 362.008 19.868 362.008 19.868C362.108 19.6682 362.192 19.4827 362.259 19.3115C361.907 19.3543 361.454 19.4827 361.001 19.7824C361.605 20.296 362.309 20.3388 362.813 20.296C362.679 20.1533 362.561 20.0249 362.46 19.9108C362.158 19.9108 362.008 19.9108 362.008 19.9108Z" fill="#008080"/>
<path d="M337.747 29.4554C337.747 29.4554 340.264 28.2569 340.113 26.4593C340.113 26.4593 342.881 26.5449 342.881 25.3037C342.881 24.0197 340.012 23.9341 340.566 23.1209C341.069 22.3933 341.925 23.3349 343.183 23.4205C344.844 23.5061 346.052 22.6501 345.901 21.4517C345.901 21.4517 347.612 21.2377 347.965 20.6813C348.367 20.082 348.971 19.8252 348.971 19.8252C348.971 19.8252 348.367 19.6112 347.965 18.9692C347.612 18.4128 345.901 18.2416 345.901 18.2416C346.052 17.0004 344.844 16.1444 343.183 16.2728C341.925 16.3156 341.069 17.2572 340.566 16.5724C340.012 15.7164 342.881 15.6308 342.881 14.3896C342.881 13.1056 340.113 13.234 340.113 13.234C340.264 11.3935 337.747 10.2379 337.747 10.2379L337.948 10.0239C337.948 10.0239 340.314 10.8371 340.666 12.7204C340.666 12.7204 344.441 12.5064 343.737 15.802C343.737 15.802 346.354 15.588 346.455 17.8564C346.455 17.8564 348.015 18.0704 348.518 18.9264C348.971 19.7824 349.928 19.8252 349.928 19.8252C349.928 19.8252 348.971 19.868 348.518 20.7241C348.015 21.5801 346.455 21.7941 346.455 21.7941C346.354 24.0625 343.737 23.8913 343.737 23.8913C344.441 27.1441 340.666 26.9729 340.666 26.9729C340.314 28.8134 337.948 29.6694 337.948 29.6694L337.747 29.4554Z" fill="#CDAD80"/>
<path d="M369.255 28.6421C369.255 28.6421 369.608 26.8873 368.802 26.1169C368.802 26.1169 368.098 26.3737 367.846 25.8601C367.594 25.3037 368.148 25.0897 368.45 25.1325C368.45 25.1325 368.5 23.2493 365.682 22.0936C364.876 21.794 364.423 21.6228 364.574 21.152C364.725 20.6812 365.732 20.724 366.588 21.4944C367.443 22.222 368.047 21.1948 368.047 21.1948C368.047 21.1948 369.809 21.0236 371.218 20.1676C372.124 19.6112 372.477 20.082 372.527 20.3816C372.577 20.6384 372.275 20.8096 372.024 20.8096C371.772 20.8096 371.621 20.4672 371.621 20.4672C371.621 20.4672 370.816 21.0236 370.061 21.3232C369.356 21.58 368.752 21.6228 368.5 21.6656C368.5 21.6656 368.5 22.436 367.443 22.4788C367.443 22.4788 368.4 23.2065 368.551 23.6345C368.551 23.6345 369.155 23.3349 369.356 23.9769C369.557 24.4905 369.104 24.5761 369.104 24.5761C369.104 24.5761 370.161 26.1169 369.255 28.6421Z" fill="#CDAD80"/>
<path d="M363.417 19.6969C363.115 19.7825 362.712 19.8681 362.46 20.6385C362.259 21.5373 363.014 22.0937 365.329 22.7785C368.198 23.5917 368.45 25.1326 368.45 25.1326C368.45 25.1326 368.601 22.9925 364.927 22.0509C363.316 21.6657 363.215 21.3233 363.215 20.7669C363.215 20.2533 364.071 19.8253 365.329 19.9965V19.3973C364.071 19.5685 363.215 19.1405 363.215 18.6269C363.215 18.0705 363.316 17.7281 364.927 17.3429C368.601 16.3585 368.45 14.2612 368.45 14.2612C368.45 14.2612 368.198 15.802 365.329 16.6153C363.014 17.3001 362.259 17.8565 362.46 18.7125C362.712 19.5257 363.115 19.6113 363.417 19.6969Z" fill="#CDAD80"/>
<path d="M369.255 10.7517C369.255 10.7517 369.608 12.5065 368.802 13.2769C368.802 13.2769 368.098 12.9773 367.846 13.5337C367.594 14.0473 368.148 14.3041 368.45 14.2613C368.45 14.2613 368.5 16.1018 365.682 17.3002C364.876 17.5998 364.423 17.771 364.574 18.2418C364.725 18.6698 365.732 18.627 366.588 17.8994C367.443 17.1718 368.047 18.199 368.047 18.199C368.047 18.199 369.809 18.3702 371.218 19.2262C372.124 19.7826 372.477 19.3118 372.527 19.0122C372.577 18.7126 372.275 18.5842 372.024 18.5842C371.772 18.5842 371.621 18.9266 371.621 18.9266C371.621 18.9266 370.816 18.3274 370.061 18.0706C369.356 17.8138 368.752 17.7282 368.5 17.7282C368.5 17.7282 368.5 16.9578 367.443 16.915C367.443 16.915 368.4 16.1874 368.551 15.7593C368.551 15.7593 369.155 16.059 369.356 15.4169C369.557 14.9033 369.104 14.8177 369.104 14.8177C369.104 14.8177 370.161 13.2769 369.255 10.7517Z" fill="#CDAD80"/>
<path d="M359.038 19.6967C360.447 18.3699 362.611 17.9419 362.611 17.9419C362.41 18.1559 362.41 18.6267 362.41 18.6267C362.41 18.6267 361.202 18.7979 359.944 19.6967C361.202 20.5955 362.41 20.7668 362.41 20.7668C362.41 20.7668 362.41 21.2376 362.611 21.4516C362.611 21.4516 360.447 21.0236 359.038 19.6967Z" fill="#CDAD80"/>
<path d="M365.581 19.697C365.581 18.7982 367.343 18.3274 367.343 18.3274C367.343 18.3274 367.242 19.0978 366.588 19.3546C366.588 19.3546 367.594 19.0122 368.45 19.697C367.544 20.2962 366.588 20.0394 366.588 20.0394C367.242 20.2962 367.343 21.0238 367.343 21.0238C367.343 21.0238 365.581 20.6386 365.581 19.697Z" fill="#008080"/>
<path d="M366.034 20.125C366.034 20.6386 365.329 20.6386 365.329 20.125V19.055C365.329 18.4986 366.034 18.5414 366.034 19.055V20.125Z" fill="#CDAD80"/>
<path d="M337.747 25.9031C337.797 26.6307 339.056 29.5411 341.623 29.5411C344.139 29.5411 344.995 27.5295 344.995 27.5295C344.995 27.5295 344.139 28.6423 342.579 28.6423C341.824 28.6423 341.824 28.0431 341.119 28.0431C340.465 28.0431 340.415 28.6423 340.767 28.9419C340.767 28.9419 338.854 28.5139 337.948 25.9031H337.747Z" fill="#CDAD80"/>
<path d="M342.73 19.7395C338.603 20.8095 337.747 23.6772 337.747 23.6772L338.099 23.72C338.099 23.72 339.207 21.1091 342.78 20.0391L342.73 19.7395Z" fill="#CDAD80"/>
<path d="M340.163 21.3661L340.616 21.0237C340.868 22.9925 343.988 23.4205 343.988 23.4205C343.988 23.4205 340.717 23.5917 340.163 21.3661Z" fill="#CDAD80"/>
<path d="M337.747 13.7905C337.797 13.0629 339.056 10.1096 341.623 10.1096C344.139 10.1096 344.995 12.164 344.995 12.164C344.995 12.164 344.139 11.0512 342.579 11.0512C341.824 11.0512 341.824 11.6504 341.119 11.6504C340.465 11.6504 340.415 11.0512 340.767 10.7516C340.767 10.7516 338.854 11.1368 337.948 13.7905H337.747Z" fill="#CDAD80"/>
<path d="M342.73 19.9537C338.603 18.8837 337.747 15.9732 337.747 15.9732L338.099 15.9304C338.099 15.9304 339.207 18.5841 342.78 19.6541L342.73 19.9537Z" fill="#CDAD80"/>
<path d="M340.163 18.3272L340.616 18.6696C340.868 16.658 343.988 16.2727 343.988 16.2727C343.988 16.2727 340.717 16.0587 340.163 18.3272Z" fill="#CDAD80"/>
<path d="M338.2 19.7397C338.804 18.6697 339.458 18.3701 339.458 18.3701L339.811 18.6269C339.811 18.6269 339.106 18.9693 338.754 19.7397C339.106 20.5101 339.962 20.9809 339.962 20.9809L339.559 21.2806C339.559 21.2806 338.804 20.8097 338.2 19.7397Z" fill="#CDAD80"/>
<path d="M337.747 29.7124C339.458 30.5684 339.962 32.366 339.962 32.366C339.005 32.4516 338.552 31.51 338.552 31.51C338.854 32.5372 337.747 33.6928 337.747 33.6928V29.7124Z" fill="#008080"/>
<path d="M337.747 23.6775C339.358 23.7631 339.609 25.6035 339.609 25.6035C338.703 25.6035 338.401 24.7903 338.401 24.7903C338.804 25.8603 337.747 26.5023 337.747 26.5023V23.6775Z" fill="#008080"/>
<path d="M343.082 19.7825C343.233 21.1522 345.398 21.3234 345.398 21.3234C345.398 20.5529 344.441 20.2961 344.441 20.2961C345.7 20.5957 346.505 19.7397 346.505 19.7397C346.505 19.7397 345.7 19.0977 344.441 19.3973C344.441 19.3973 345.398 19.1405 345.398 18.3701C345.398 18.3701 343.233 18.4129 343.082 19.7825Z" fill="#008080"/>
<path d="M337.747 9.98118C339.458 9.12517 339.962 7.32755 339.962 7.32755C339.005 7.24195 338.552 8.18356 338.552 8.18356C338.854 7.11355 337.747 6.00073 337.747 6.00073V9.98118Z" fill="#008080"/>
<path d="M337.747 16.0161C339.358 15.8877 339.609 14.09 339.609 14.09C338.703 14.09 338.401 14.9033 338.401 14.9033C338.804 13.8332 337.747 13.1484 337.747 13.1484V16.0161Z" fill="#008080"/>
<path d="M342.68 20.5102C342.68 21.1522 343.485 21.1522 343.485 20.5102V19.1834C343.485 18.5414 342.68 18.5414 342.68 19.1834V20.5102Z" fill="#CDAD80"/>
<path d="M337.747 30.2686H338.804C339.76 30.2686 339.71 29.4553 338.804 29.4553H337.747V30.2686Z" fill="#CDAD80"/>
<path d="M337.747 16.3584H338.653C339.408 16.3584 339.458 15.6736 338.653 15.6736H337.747V16.3584Z" fill="#CDAD80"/>
<path d="M337.747 23.9768H338.653C339.408 23.9768 339.458 23.292 338.653 23.292H337.747V23.9768Z" fill="#CDAD80"/>
<path d="M337.747 9.4248H338.804C339.76 9.4248 339.71 10.1952 338.804 10.1952H337.747V9.4248Z" fill="#CDAD80"/>
<path d="M93 19.0658L108.5 3H268.5L282 19.0658L267.5 36H109L93 19.0658Z" fill="#1E1E1E"/>
<path d="M82.6096 37.9608C84.9753 37.8352 94.7398 34.7772 94.7398 28.787C94.7398 22.7967 87.9952 20.8279 87.9952 20.8279C87.9952 20.8279 91.7199 22.7967 91.7199 26.5249C91.7199 28.3681 89.7066 28.3681 89.7066 29.918C89.7066 31.5098 91.7199 31.6355 92.7265 30.7977C92.7265 30.7977 91.3675 35.3218 82.6096 37.5V37.9608Z" fill="#1E1E1E"/>
<path d="M62 25.8474C65.4699 36.6775 74.8045 38.9748 74.8045 38.9748L75 38.0371C75 38.0371 66.4474 35.0834 63.0263 25.7068L62 25.8474Z" fill="#1E1E1E"/>
<path d="M67.4595 32.2219L66.3522 31.1328C72.9458 30.5463 74.3551 23.2156 74.3551 23.2156C74.3551 23.2156 74.9591 30.9233 67.4595 32.2219Z" fill="#1E1E1E"/>
<path d="M94.3875 37.9609C94.3875 37.9609 90.5119 32.0125 84.4719 32.3477C84.4719 32.3477 84.8243 25.8128 80.5963 25.8128C76.3683 25.8128 76.1167 32.5571 73.3484 31.2166C70.9827 30.0856 74.1033 28.0749 74.355 25.1007C74.7073 21.2468 71.8384 18.3983 67.8117 18.6916C67.8117 18.6916 67.1071 14.6282 65.2448 13.8323C63.1811 12.9108 62.4261 11.4027 62.4261 11.4027C62.4261 11.4027 61.6208 12.9108 59.5571 13.8323C57.7452 14.6282 57.0405 18.6916 57.0405 18.6916C53.0139 18.3983 50.1449 21.2468 50.4972 25.1007C50.7489 28.0749 53.8695 30.0856 51.5039 31.2166C48.6852 32.5571 48.4839 25.8128 44.2559 25.8128C40.028 25.8128 40.3803 32.3477 40.3803 32.3477C34.29 32.0125 30.4144 37.9609 30.4144 37.9609L29.7601 37.4163C29.7601 37.4163 32.5284 31.845 38.669 31.0491C38.669 31.0491 38.0147 22.0846 48.9369 23.8021C48.9369 23.8021 48.2826 17.6862 55.8828 17.393C55.8828 17.393 56.5372 13.6648 59.4061 12.5337C62.2751 11.4027 62.4261 9.26636 62.4261 9.26636C62.4261 9.26636 62.5771 11.4027 65.4461 12.5337C68.2647 13.6648 68.9694 17.393 68.9694 17.393C76.5697 17.6862 75.865 23.8021 75.865 23.8021C86.8376 22.0846 86.1329 31.0491 86.1329 31.0491C92.3239 31.845 95.0922 37.4163 95.0922 37.4163L94.3875 37.9609Z" fill="#1E1E1E"/>
<path d="M63 25.8474C59.3019 36.6775 49.1585 38.9748 49.1585 38.9748L49 38.0371C49 38.0371 58.2453 35.0834 61.9434 25.7068L63 25.8474Z" fill="#1E1E1E"/>
<path d="M57.3928 32.2219L58.4498 31.1328C51.9065 30.5463 50.4972 23.2156 50.4972 23.2156C50.4972 23.2156 49.8429 30.9233 57.3928 32.2219Z" fill="#1E1E1E"/>
<path d="M62.0738 36.8299C58.5505 35.4475 57.4935 33.8557 57.4935 33.8557L58.3995 32.976C58.3995 32.976 59.5571 34.6516 62.0738 35.4894C64.6407 34.6516 66.2514 32.7666 66.2514 32.7666L67.3084 33.6463C67.3084 33.6463 65.6474 35.4475 62.0738 36.8299Z" fill="#1E1E1E"/>
<path d="M63 12.3069C59.2632 2.10975 49.2105 0 49.2105 0L49 0.835109C49 0.835109 58.2105 3.64811 61.8947 12.4387L63 12.3069Z" fill="#1E1E1E"/>
<path d="M57.3928 6.16626L58.5001 7.2554C51.9065 7.84186 50.4972 15.1307 50.4972 15.1307C50.4972 15.1307 49.8932 7.42296 57.3928 6.16626Z" fill="#1E1E1E"/>
<path d="M30.4647 0.427246C30.4647 0.427246 34.3404 6.33372 40.3803 6.04049C40.3803 6.04049 40.028 12.5753 44.2559 12.5753C48.4839 12.5753 48.7356 5.83104 51.5039 7.17152C53.8695 8.30254 50.7489 10.3133 50.4972 13.2875C50.1449 17.1413 53.0139 19.9898 57.0405 19.6966C57.0405 19.6966 57.7452 23.718 59.6075 24.5558C61.6711 25.4355 62.4261 26.9436 62.4261 26.9436C62.4261 26.9436 63.2314 25.4355 65.2951 24.5558C67.1071 23.718 67.8117 19.6966 67.8117 19.6966C71.8384 19.9898 74.7073 17.1413 74.355 13.2875C74.1033 10.3133 70.9827 8.30254 73.3484 7.17152C76.1167 5.83104 76.3683 12.5753 80.5963 12.5753C84.8243 12.5753 84.4719 6.04049 84.4719 6.04049C90.5622 6.33372 94.4378 0.427246 94.4378 0.427246L95.0922 0.971815C95.0922 0.971815 92.3239 6.54317 86.1832 7.29719C86.1832 7.29719 86.8376 16.2616 75.9153 14.586C75.9153 14.586 76.5697 20.702 68.9694 20.9952C68.9694 20.9952 68.3151 24.6815 65.4461 25.8125C62.5771 26.9436 62.4261 29.0799 62.4261 29.0799C62.4261 29.0799 62.2751 26.9436 59.4061 25.8125C56.5875 24.6815 55.8828 20.9952 55.8828 20.9952C48.2826 20.702 48.9872 14.586 48.9872 14.586C38.0147 16.2616 38.7193 7.29719 38.7193 7.29719C32.5284 6.54317 29.7601 0.971815 29.7601 0.971815L30.4647 0.427246Z" fill="#1E1E1E"/>
<path d="M82.6096 0.427246C84.9753 0.552916 94.7398 3.61088 94.7398 9.60113C94.7398 15.5495 87.9952 17.5602 87.9952 17.5602C87.9952 17.5602 91.7199 15.5495 91.7199 11.8632C91.7199 10.02 89.7066 10.02 89.7066 8.42821C89.7066 6.87829 91.7199 6.75262 92.7265 7.59042C92.7265 7.59042 91.4179 3.02442 82.6096 0.888035V0.427246Z" fill="#1E1E1E"/>
<path d="M62 12.3069C65.434 2.10975 74.8528 0 74.8528 0L75 0.835109C75 0.835109 66.4151 3.64811 62.9811 12.4387L62 12.3069Z" fill="#1E1E1E"/>
<path d="M67.4595 6.16626L66.4025 7.2554C72.9458 7.84186 74.3551 15.1307 74.3551 15.1307C74.3551 15.1307 75.0094 7.42296 67.4595 6.16626Z" fill="#1E1E1E"/>
<path d="M62.7784 1.55835C66.3017 2.94072 67.3587 4.53253 67.3587 4.53253L66.4527 5.37033C66.4527 5.37033 65.2951 3.69474 62.7784 2.85694C60.2115 3.69474 58.6008 5.62167 58.6008 5.62167L57.5438 4.74198C57.5438 4.74198 59.2048 2.94072 62.7784 1.55835Z" fill="#1E1E1E"/>
<path d="M91.8205 6.6272C91.8205 6.6272 91.3675 9.05681 92.4748 10.1459C92.4748 10.1459 93.5318 9.72705 93.8842 10.4811C94.2868 11.2351 93.4815 11.5702 92.9782 11.5283C92.9782 11.5283 92.9278 14.0836 96.9545 15.7173C98.1121 16.1781 98.7161 16.3875 98.5148 17.0578C98.3134 17.6861 96.9041 17.6023 95.6961 16.597C94.4882 15.5497 93.6325 16.974 93.6325 16.974C93.6325 16.974 91.0655 17.2672 89.0522 18.4401C87.7939 19.1942 87.2905 18.5239 87.2402 18.1469C87.1395 17.728 87.5925 17.5186 87.9449 17.5186C88.2972 17.5186 88.4985 18.0212 88.4985 18.0212C88.4985 18.0212 89.6562 17.1834 90.7132 16.8064C91.7198 16.4294 92.5755 16.3456 92.9278 16.3456C92.9278 16.3456 92.9278 15.2565 94.4378 15.1727C94.4378 15.1727 93.0285 14.1674 92.8272 13.5809C92.8272 13.5809 92.0218 13.9998 91.7198 13.1201C91.4682 12.408 92.0722 12.2823 92.0722 12.2823C92.0722 12.2823 90.5622 10.1459 91.8205 6.6272Z" fill="#CDAD80"/>
<path d="M100.176 19.0685C100.629 18.9428 101.182 18.859 101.484 17.728C101.837 16.5132 100.729 15.7173 97.4578 14.7957C93.3305 13.6647 92.9781 11.5283 92.9781 11.5283C92.9781 11.5283 92.7768 14.4606 98.0114 15.7592C100.276 16.3456 100.427 16.8064 100.427 17.5604C100.427 18.3145 99.2194 18.9009 97.4578 18.6496V19.4874C99.2194 19.2779 100.427 19.8225 100.427 20.5765C100.427 21.3305 100.276 21.7913 98.0114 22.3778C92.7768 23.7183 92.9781 26.6087 92.9781 26.6087C92.9781 26.6087 93.3305 24.5142 97.4578 23.3412C100.729 22.4197 101.837 21.6238 101.484 20.409C101.182 19.2779 100.629 19.1941 100.176 19.0685Z" fill="#CDAD80"/>
<path d="M91.8205 31.5096C91.8205 31.5096 91.3675 29.08 92.4748 27.9908C92.4748 27.9908 93.5318 28.4097 93.8842 27.6557C94.2868 26.9017 93.4815 26.5666 92.9782 26.6085C92.9782 26.6085 92.9278 24.0532 96.9545 22.4195C98.1121 21.9587 98.7161 21.7492 98.5148 21.1209C98.3134 20.4925 96.9041 20.5344 95.6961 21.5817C94.4882 22.587 93.6325 21.1628 93.6325 21.1628C93.6325 21.1628 91.0655 20.9114 89.0522 19.7385C87.7939 18.9845 87.2905 19.6128 87.2402 20.0317C87.1395 20.4088 87.5925 20.6601 87.9449 20.6601C88.2972 20.6601 88.4985 20.1155 88.4985 20.1155C88.4985 20.1155 89.6562 20.9533 90.7132 21.3303C91.7198 21.7073 92.5755 21.7911 92.9278 21.7911C92.9278 21.7911 92.9278 22.8803 94.4378 22.964C94.4378 22.964 93.0285 23.9694 92.8272 24.5558C92.8272 24.5558 92.0218 24.137 91.7198 25.0166C91.4682 25.7288 92.0722 25.8963 92.0722 25.8963C92.0722 25.8963 90.5622 27.9908 91.8205 31.5096Z" fill="#CDAD80"/>
<path d="M106.417 19.0685C104.404 20.9117 101.283 21.54 101.283 21.54C101.585 21.2468 101.585 20.5347 101.585 20.5347C101.585 20.5347 103.347 20.3252 105.108 19.0685C103.347 17.8118 101.585 17.6024 101.585 17.6024C101.585 17.6024 101.585 16.9321 101.283 16.6389C101.283 16.6389 104.404 17.2254 106.417 19.0685Z" fill="#CDAD80"/>
<path d="M97.1056 19.0684C97.1056 20.3251 94.5889 20.9534 94.5889 20.9534C94.5889 20.9534 94.6896 19.9062 95.6962 19.5292C95.6962 19.5292 94.2366 20.0319 93.0286 19.0684C94.2869 18.1887 95.6962 18.6076 95.6962 18.6076C94.6896 18.2725 94.5889 17.1833 94.5889 17.1833C94.5889 17.1833 97.1056 17.7279 97.1056 19.0684Z" fill="#008080"/>
<path d="M96.5015 18.4818C96.5015 17.7697 97.4075 17.7278 97.4075 18.4818V19.9899C97.4075 20.7439 96.5015 20.702 96.5015 19.9899V18.4818Z" fill="#CDAD80"/>
<path d="M311.863 25.8474C315.614 36.6775 325.705 38.9748 325.705 38.9748L325.863 38.0371C325.863 38.0371 316.671 35.0834 312.973 25.7068L311.863 25.8474Z" fill="#1E1E1E"/>
<path d="M317.427 32.2219L316.37 31.1328C322.913 30.5463 324.373 23.2156 324.373 23.2156C324.373 23.2156 324.977 30.9233 317.427 32.2219Z" fill="#1E1E1E"/>
<path d="M344.405 37.9609C344.405 37.9609 340.53 32.0125 334.49 32.3477C334.49 32.3477 334.792 25.8128 330.614 25.8128C326.386 25.8128 326.135 32.5571 323.366 31.2166C321.001 30.0856 324.121 28.0749 324.373 25.1007C324.725 21.2468 321.856 18.3983 317.779 18.6916C317.779 18.6916 317.125 14.6282 315.263 13.8323C313.199 12.9108 312.394 11.4027 312.394 11.4027C312.394 11.4027 311.639 12.9108 309.575 13.8323C307.763 14.6282 307.058 18.6916 307.058 18.6916C303.032 18.3983 300.163 21.2468 300.515 25.1007C300.767 28.0749 303.837 30.0856 301.471 31.2166C298.703 32.5571 298.451 25.8128 294.274 25.8128C290.046 25.8128 290.398 32.3477 290.398 32.3477C284.308 32.0125 280.432 37.9609 280.432 37.9609L279.778 37.4163C279.778 37.4163 282.496 31.845 288.687 31.0491C288.687 31.0491 288.033 22.0846 298.955 23.8021C298.955 23.8021 298.3 17.6862 305.901 17.393C305.901 17.393 306.555 13.6648 309.424 12.5337C312.293 11.4027 312.394 9.26636 312.394 9.26636C312.394 9.26636 312.545 11.4027 315.464 12.5337C318.283 13.6648 318.987 17.393 318.987 17.393C326.537 17.6862 325.883 23.8021 325.883 23.8021C336.805 22.0846 336.151 31.0491 336.151 31.0491C342.342 31.845 345.11 37.4163 345.11 37.4163L344.405 37.9609Z" fill="#1E1E1E"/>
<path d="M292.21 37.9608C289.895 37.8352 280.08 34.7772 280.08 28.787C280.08 22.7967 286.825 20.8279 286.825 20.8279C286.825 20.8279 283.15 22.7967 283.15 26.5249C283.15 28.3681 285.164 28.3681 285.164 29.918C285.164 31.5098 283.15 31.6355 282.144 30.7977C282.144 30.7977 283.452 35.3218 292.21 37.5V37.9608Z" fill="#1E1E1E"/>
<path d="M312.863 25.8474C309.429 36.6775 300.011 38.9748 300.011 38.9748L299.863 38.0371C299.863 38.0371 308.399 35.0834 311.882 25.7068L312.863 25.8474Z" fill="#1E1E1E"/>
<path d="M307.411 32.2219L308.468 31.1328C301.924 30.5463 300.515 23.2156 300.515 23.2156C300.515 23.2156 299.861 30.9233 307.411 32.2219Z" fill="#1E1E1E"/>
<path d="M312.092 36.8299C308.568 35.4475 307.511 33.8557 307.511 33.8557L308.367 32.976C308.367 32.976 309.575 34.6516 312.092 35.4894C314.659 34.6516 316.219 32.7666 316.219 32.7666L317.276 33.6463C317.276 33.6463 315.615 35.4475 312.092 36.8299Z" fill="#1E1E1E"/>
<path d="M292.26 0.427246C289.895 0.552916 280.13 3.61088 280.13 9.60113C280.13 15.5495 286.875 17.5602 286.875 17.5602C286.875 17.5602 283.15 15.5495 283.15 11.8632C283.15 10.02 285.164 10.02 285.164 8.42821C285.164 6.87829 283.15 6.75262 282.144 7.59042C282.144 7.59042 283.503 3.02442 292.26 0.888035V0.427246Z" fill="#1E1E1E"/>
<path d="M312.863 12.3069C309.429 2.10975 300.06 0 300.06 0L299.863 0.835109C299.863 0.835109 308.448 3.64811 311.882 12.4387L312.863 12.3069Z" fill="#1E1E1E"/>
<path d="M307.411 6.16626L308.468 7.2554C301.924 7.84186 300.515 15.1307 300.515 15.1307C300.515 15.1307 299.861 7.42296 307.411 6.16626Z" fill="#1E1E1E"/>
<path d="M280.432 0.427246C280.432 0.427246 284.358 6.33372 290.398 6.04049C290.398 6.04049 290.046 12.5753 294.274 12.5753C298.451 12.5753 298.753 5.83104 301.522 7.17152C303.887 8.30254 300.767 10.3133 300.515 13.2875C300.163 17.1413 303.032 19.9898 307.058 19.6966C307.058 19.6966 307.763 23.718 309.575 24.5558C311.639 25.4355 312.444 26.9436 312.444 26.9436C312.444 26.9436 313.249 25.4355 315.263 24.5558C317.125 23.718 317.83 19.6966 317.83 19.6966C321.856 19.9898 324.725 17.1413 324.373 13.2875C324.121 10.3133 321.001 8.30254 323.366 7.17152C326.135 5.83104 326.386 12.5753 330.614 12.5753C334.842 12.5753 334.49 6.04049 334.49 6.04049C340.53 6.33372 344.456 0.427246 344.456 0.427246L345.11 0.971815C345.11 0.971815 342.342 6.54317 336.151 7.29719C336.151 7.29719 336.855 16.2616 325.883 14.586C325.883 14.586 326.537 20.702 318.987 20.9952C318.987 20.9952 318.333 24.6815 315.464 25.8125C312.595 26.9436 312.444 29.0799 312.444 29.0799C312.444 29.0799 312.293 26.9436 309.424 25.8125C306.555 24.6815 305.901 20.9952 305.901 20.9952C298.3 20.702 299.005 14.586 299.005 14.586C288.033 16.2616 288.687 7.29719 288.687 7.29719C282.546 6.54317 279.778 0.971815 279.778 0.971815L280.432 0.427246Z" fill="#1E1E1E"/>
<path d="M311.863 12.3069C315.562 2.10975 325.705 0 325.705 0L325.863 0.835109C325.863 0.835109 316.618 3.64811 312.92 12.4387L311.863 12.3069Z" fill="#1E1E1E"/>
<path d="M317.477 6.16626L316.37 7.2554C322.964 7.84186 324.373 15.1307 324.373 15.1307C324.373 15.1307 324.977 7.42296 317.477 6.16626Z" fill="#1E1E1E"/>
<path d="M312.746 1.55835C316.269 2.94072 317.326 4.53253 317.326 4.53253L316.471 5.37033C316.471 5.37033 315.313 3.69474 312.746 2.85694C310.229 3.69474 308.619 5.62167 308.619 5.62167L307.562 4.74198C307.562 4.74198 309.223 2.94072 312.746 1.55835Z" fill="#1E1E1E"/>
<path d="M282.546 31.5096C282.546 31.5096 283.05 29.08 281.892 27.9908C281.892 27.9908 280.835 28.4097 280.483 27.6557C280.13 26.9017 280.885 26.5666 281.389 26.6085C281.389 26.6085 281.439 24.0532 277.412 22.4195C276.305 21.9587 275.651 21.7492 275.852 21.1209C276.053 20.4925 277.513 20.5344 278.721 21.5817C279.929 22.587 280.734 21.1628 280.734 21.1628C280.734 21.1628 283.301 20.9114 285.315 19.7385C286.573 18.9845 287.076 19.6128 287.127 20.0317C287.227 20.4088 286.774 20.6601 286.422 20.6601C286.07 20.6601 285.868 20.1155 285.868 20.1155C285.868 20.1155 284.711 20.9533 283.654 21.3722C282.647 21.7073 281.791 21.7911 281.489 21.7911C281.489 21.7911 281.439 22.8803 279.929 22.964C279.929 22.964 281.338 23.9694 281.54 24.5558C281.54 24.5558 282.395 24.137 282.697 25.0166C282.899 25.7288 282.295 25.8963 282.295 25.8963C282.295 25.8963 283.805 27.9908 282.546 31.5096Z" fill="#CDAD80"/>
<path d="M274.191 19.0685C273.738 19.1941 273.184 19.3198 272.882 20.409C272.53 21.6238 273.637 22.4197 276.909 23.3412C281.036 24.5142 281.389 26.6087 281.389 26.6087C281.389 26.6087 281.59 23.6764 276.355 22.3778C274.09 21.7913 273.939 21.3305 273.939 20.5765C273.939 19.8225 275.147 19.2779 276.909 19.4874V18.6496C275.147 18.859 273.939 18.3145 273.939 17.5604C273.939 16.8064 274.09 16.3456 276.355 15.7592C281.59 14.4606 281.389 11.5283 281.389 11.5283C281.389 11.5283 281.036 13.6647 276.909 14.7957C273.637 15.7173 272.53 16.5132 272.882 17.728C273.184 18.859 273.738 18.9428 274.191 19.0685Z" fill="#CDAD80"/>
<path d="M282.546 6.6272C282.546 6.6272 283.05 9.05681 281.892 10.1459C281.892 10.1459 280.835 9.72705 280.483 10.4811C280.13 11.2351 280.885 11.5702 281.389 11.5283C281.389 11.5283 281.439 14.0836 277.412 15.7173C276.305 16.1781 275.651 16.3875 275.852 17.0578C276.053 17.6861 277.513 17.6023 278.721 16.597C279.929 15.5497 280.734 16.974 280.734 16.974C280.734 16.974 283.301 17.2672 285.315 18.3983C286.573 19.1942 287.076 18.5239 287.127 18.1469C287.227 17.728 286.774 17.5186 286.422 17.5186C286.07 17.5186 285.868 18.0212 285.868 18.0212C285.868 18.0212 284.711 17.1834 283.654 16.8064C282.647 16.4294 281.791 16.3456 281.489 16.3456C281.489 16.3456 281.439 15.2565 279.929 15.1727C279.929 15.1727 281.338 14.1674 281.54 13.5809C281.54 13.5809 282.395 13.9998 282.697 13.1201C282.899 12.408 282.295 12.2823 282.295 12.2823C282.295 12.2823 283.805 10.1459 282.546 6.6272Z" fill="#CDAD80"/>
<path d="M268 19.0685C269.963 17.2254 273.084 16.6389 273.084 16.6389C272.782 16.8902 272.782 17.6024 272.782 17.6024C272.782 17.6024 271.02 17.8118 269.258 19.0685C271.02 20.3252 272.782 20.5347 272.782 20.5347C272.782 20.5347 272.782 21.2468 273.084 21.54C273.084 21.54 269.963 20.9117 268 19.0685Z" fill="#CDAD80"/>
<path d="M277.261 19.0684C277.261 17.8117 279.778 17.1833 279.778 17.1833C279.778 17.1833 279.677 18.2725 278.671 18.6076C278.671 18.6076 280.13 18.1468 281.389 19.0684C280.08 19.9481 278.671 19.5292 278.671 19.5292C279.677 19.9062 279.778 20.9534 279.778 20.9534C279.778 20.9534 277.261 20.4089 277.261 19.0684Z" fill="#008080"/>
<path d="M277.916 19.655C277.916 20.409 276.959 20.409 276.959 19.655V18.1888C276.959 17.4348 277.916 17.4767 277.916 18.1888V19.655Z" fill="#CDAD80"/>
</g>
<defs>
<clipPath id="clip0_19_2">
<rect width="373" height="39" fill="white"/>
</clipPath>
</defs>
</svg>
